# xmcd CD database file
#
# Track frame offsets:
#	150
#	18331
#	53571
#	87549
#	123061
#	151687
#	192322
#	228172
#	267520
#
# Disc length: 3882 seconds
#
# Revision: 0
# Processed by: cddbd v1.5.2PL0 Copyright (c) Steve Scherf et al.
# Submitted via: CDex 1.51
#
DISCID=660f2809
DTITLE=Barbara Bruckmüller Big Band - Brazilian Flavoured Coffee 
DYEAR=2013
DGENRE=Jazz
TTITLE0=Brazilian Flavoured Coffee
TTITLE1=Both Of You
TTITLE2=Tigger's Bounce
TTITLE3=Come Sunday
TTITLE4=Strange Angel With His Trumpet
TTITLE5=Never Told You, But I Do
TTITLE6=When New York Meets Barcelona In Vienna
TTITLE7=So Many Stars
TTITLE8=Missing Your Kissing
EXTD=YEAR: 2013
EXTT0=
EXTT1=
EXTT2=
EXTT3=
EXTT4=
EXTT5=
EXTT6=
EXTT7=
EXTT8=
PLAYORDER=
